<svg xmlns="http://www.w3.org/2000/svg" width="16.715" height="16.005" viewBox="0 0 16.715 16.005">
  <g id="Group_6867" data-name="Group 6867" transform="translate(-24.285 -220.86)">
    <path id="Path_5242" data-name="Path 5242" d="M594.925,1035.426a7.565,7.565,0,0,0-1.108-.28,4.711,4.711,0,0,1-.731-.182q-.222-.086-.222-.258,0-.363.745-.363a3.564,3.564,0,0,1,1.6.422l.578-1.4a4.124,4.124,0,0,0-1.667-.471v-.878h-1.157v.894a2.586,2.586,0,0,0-1.5.661,1.683,1.683,0,0,0-.517,1.241,1.422,1.422,0,0,0,.331.988,1.88,1.88,0,0,0,.773.523,8.345,8.345,0,0,0,1.109.3,4.885,4.885,0,0,1,.743.195c.151.059.227.15.227.27a.251.251,0,0,1-.172.234,1.492,1.492,0,0,1-.574.08,3.58,3.58,0,0,1-.977-.141,3.93,3.93,0,0,1-.92-.379l-.619,1.413a3.573,3.573,0,0,0,.933.383,5.531,5.531,0,0,0,1.178.185v.87h1.157v-.911a2.527,2.527,0,0,0,1.413-.681,1.674,1.674,0,0,0,.5-1.213,1.4,1.4,0,0,0-.336-.984A1.928,1.928,0,0,0,594.925,1035.426Z" transform="translate(-560.106 -806.547)"/>
    <path id="Path_5243" data-name="Path 5243" d="M595.055,1028.272h0a42.578,42.578,0,0,0-10.668-.81,5.08,5.08,0,0,1,2,.961,8.465,8.465,0,0,1,1.893,1.69,7.653,7.653,0,1,0,6.771-1.84Zm.493,9.869a2.527,2.527,0,0,1-1.413.681v.911h-1.157v-.87a5.531,5.531,0,0,1-1.178-.185,3.573,3.573,0,0,1-.933-.383l.619-1.413a3.93,3.93,0,0,0,.92.379,3.58,3.58,0,0,0,.977.141,1.492,1.492,0,0,0,.574-.08.251.251,0,0,0,.172-.234c0-.12-.076-.211-.227-.27a4.885,4.885,0,0,0-.743-.195,8.345,8.345,0,0,1-1.109-.3,1.88,1.88,0,0,1-.773-.523,1.422,1.422,0,0,1-.331-.988,1.683,1.683,0,0,1,.517-1.241,2.586,2.586,0,0,1,1.5-.661v-.894h1.157v.878a4.124,4.124,0,0,1,1.667.471l-.578,1.4a3.564,3.564,0,0,0-1.6-.422q-.747,0-.745.363,0,.172.222.258a4.711,4.711,0,0,0,.731.182,7.565,7.565,0,0,1,1.108.28,1.928,1.928,0,0,1,.785.518,1.4,1.4,0,0,1,.336.984A1.674,1.674,0,0,1,595.548,1038.141Z" transform="translate(-560.106 -806.547)" fill="#ffd600"/>
  </g>
</svg>
