<svg xmlns="http://www.w3.org/2000/svg" width="42.919" height="41.066" viewBox="0 0 42.919 41.066">
  <g id="Group_6957" data-name="Group 6957" transform="translate(-213 -40.732)">
    <g id="logo-02" transform="translate(213 40.732)">
      <path id="Path_7160" data-name="Path 7160" d="M78.752,45.493A16.476,16.476,0,1,1,62.276,29,16.484,16.484,0,0,1,78.752,45.493" transform="translate(-39.419 -24.96)" fill="#2b2b2b"/>
      <path id="Path_7161" data-name="Path 7161" d="M194.269,149.049a2.615,2.615,0,0,0,2.608-2.413v-.152h.008v-.056a2.618,2.618,0,1,0-2.618,2.618" transform="translate(-165.479 -124.175)" fill="#ffd600"/>
      <path id="Path_7162" data-name="Path 7162" d="M119.366,143.861a2.616,2.616,0,0,0-2.426,1.632h4.847a2.614,2.614,0,0,0-2.422-1.633" transform="translate(-100.968 -124.182)" fill="#ffd600"/>
      <path id="Path_7163" data-name="Path 7163" d="M36.59,26.77H34.657V12.26h1.934Zm-2.4,3.513a14.1,14.1,0,0,1-21.52-.092l-.1-.123,1.592-1.335.1.125a12.019,12.019,0,0,0,18.343.078l.1-.123,1.58,1.347ZM12.514,26.77H10.581V12.26h1.934Zm5.877-9.01a4.506,4.506,0,0,1,4.5,4.279h0a5.639,5.639,0,0,1-.026.585c-.03.338-.082.609-.082.609H16.008a2.568,2.568,0,0,0,4.252.8h2.276a4.5,4.5,0,1,1-4.145-6.268m10.417,0a4.505,4.505,0,0,1,4.505,4.505c0,.088,0,.172-.007.256v4.253H31.371v-.8a4.5,4.5,0,1,1-2.563-8.213M27.378,2.209C15.058-.774,0,.129,0,.129S1.788.31,5.139,2.6A21.71,21.71,0,0,1,9.993,6.934,19.646,19.646,0,0,0,23.271,41.067h0A19.646,19.646,0,0,0,27.378,2.209" transform="translate(0 -0.001)" fill="#ffd600"/>
    </g>
  </g>
</svg>
